<?xml version="1.0" encoding="utf-8"?>
<!-- Generator: Adobe Illustrator 18.1.1, SVG Export Plug-In . SVG Version: 6.00 Build 0)  -->
<!DOCTYPE svg PUBLIC "-//W3C//DTD SVG 1.1//EN" "http://www.w3.org/Graphics/SVG/1.1/DTD/svg11.dtd">
<svg version="1.1" id="Capa_1" xmlns="http://www.w3.org/2000/svg" xmlns:xlink="http://www.w3.org/1999/xlink" x="0px" y="0px"
	 viewBox="0 0 841.9 595.3" enable-background="new 0 0 841.9 595.3" xml:space="preserve">
<g>
	<ellipse fill="#FFFFFF" cx="364" cy="233.8" rx="231.1" ry="154.6"/>
	<path fill="#FFFFFF" d="M211.3,349.9c0,0-42.5,55.8-78.4,81.8c0,0,12.9,15.8,154.8-51.8L211.3,349.9z"/>
	<path fill="#FFFFFF" d="M467,396.5c0,0,129.6-33,149.8-147.9c0,0,125.3,9.5,123.8,101.4c0,0,2.9,25.6-40.3,65.9
		c0,0,17.8,40.1,47.1,58.9c0,0-70.1-5.3-96-41.5C651.3,433.3,531.8,475.1,467,396.5z"/>
</g>
</svg>
