<?xml version="1.0" encoding="utf-8"?>
<!-- Generator: Adobe Illustrator 18.1.1, SVG Export Plug-In . SVG Version: 6.00 Build 0)  -->
<!DOCTYPE svg PUBLIC "-//W3C//DTD SVG 1.1//EN" "http://www.w3.org/Graphics/SVG/1.1/DTD/svg11.dtd">
<svg version="1.1" id="Capa_1" xmlns="http://www.w3.org/2000/svg" xmlns:xlink="http://www.w3.org/1999/xlink" x="0px" y="0px"
	 viewBox="0 0 841.9 595.3" enable-background="new 0 0 841.9 595.3" xml:space="preserve">
<g>
	<path fill="#FFFFFF" d="M233.4,124.1h95.4v-23.9c0,0-6-13.4-22.9-13.4H252c0,0-18.7,1.4-18.7,13.4V124.1z"/>
	<rect x="233.4" y="140" fill="#FFFFFF" width="95.4" height="308.1"/>
	<path fill="#FFFFFF" d="M233.4,467.1h95.4V487c0,0,0,5.8-16,15.9H254c0,0-20.7-5-20.7-17.9V467.1z"/>
	<path fill="#FFFFFF" d="M350.3,156h63.9v-21.7c0,0-4-12.2-15.4-12.2h-36.1c0,0-12.5,1.3-12.5,12.2V156z"/>
	<rect x="350.3" y="170.5" fill="#FFFFFF" width="63.9" height="279.9"/>
	<path fill="#FFFFFF" d="M350.3,467.6h63.9v18.1c0,0,0,5.3-10.7,14.4h-39.4c0,0-13.8-4.5-13.8-16.3V467.6z"/>
	<path fill="#FFFFFF" d="M444.7,215.7h63.9v-18.2c0,0-4-10.2-15.4-10.2h-36.1c0,0-12.5,1.1-12.5,10.2V215.7z"/>
	<rect x="444.7" y="223.2" fill="#FFFFFF" width="63.9" height="234.9"/>
	<path fill="#FFFFFF" d="M444.7,472.5h63.9v15.2c0,0,0,4.4-10.7,12.1h-39.4c0,0-13.8-3.8-13.8-13.6V472.5z"/>
	<path fill="#FFFFFF" d="M529.2,173.5l62.7-12.4l-4.2-21.3c0,0-6.3-11.2-17.4-9l-35.4,7c0,0-12,3.7-9.9,14.4L529.2,173.5z"/>
	
		<rect x="554.6" y="177" transform="matrix(0.9834 -0.1815 0.1815 0.9834 -47.7854 111.7136)" fill="#FFFFFF" width="63.9" height="279.9"/>
	<path fill="#FFFFFF" d="M583.2,470.6l62.7-12.4l3.5,17.8c0,0,1,5.2-7.7,16.2l-38.6,7.7c0,0-14.5-1.8-16.7-13.3L583.2,470.6z"/>
</g>
</svg>
