<?xml version="1.0" encoding="utf-8"?>
<!-- Generator: Adobe Illustrator 18.1.1, SVG Export Plug-In . SVG Version: 6.00 Build 0)  -->
<!DOCTYPE svg PUBLIC "-//W3C//DTD SVG 1.1//EN" "http://www.w3.org/Graphics/SVG/1.1/DTD/svg11.dtd">
<svg version="1.1" id="Capa_1" xmlns="http://www.w3.org/2000/svg" xmlns:xlink="http://www.w3.org/1999/xlink" x="0px" y="0px"
	 viewBox="0 0 841.9 595.3" enable-background="new 0 0 841.9 595.3" xml:space="preserve">
<path fill="none" stroke="#FFFFFF" stroke-width="28.8315" stroke-linecap="round" stroke-miterlimit="10" d="M557.4,222.5v-64.4
	c0,0-4.1-27.3-43-34.7H291.2c0,0-38,5.7-34.7,49.6v215c0,0,9.1,38,48.8,40.4h217.4"/>
<line fill="none" stroke="#FFFFFF" stroke-width="28.8315" stroke-linecap="round" stroke-miterlimit="10" x1="309.4" y1="222.5" x2="431.8" y2="222.5"/>
<line fill="none" stroke="#FFFFFF" stroke-width="28.8315" stroke-linecap="round" stroke-miterlimit="10" x1="309.4" y1="275.9" x2="401.2" y2="275.9"/>
<line fill="none" stroke="#FFFFFF" stroke-width="28.8315" stroke-linecap="round" stroke-miterlimit="10" x1="309.4" y1="328.4" x2="401.2" y2="328.4"/>
<circle fill="none" stroke="#FFFFFF" stroke-width="9.6105" stroke-linecap="round" stroke-miterlimit="10" cx="494.6" cy="296.6" r="71.1"/>
<polygon fill="#FFFFFF" points="522.7,383.8 557.4,363.9 583.1,406.9 549.2,428.4 "/>
<path fill="#FFFFFF" d="M552.9,435.8l34.3-20.7c0,0,11.6,13.2-4.1,27.3C583.1,442.5,562.7,453.5,552.9,435.8z"/>
</svg>
